<svg width="20" height="20" fill="none" xmlns="http://www.w3.org/2000/svg"><path d="M16 7h-2.5c-.827 0-1.5-.673-1.5-1.5V2H4v16h12V7z" fill="#fff"/><path d="M16 6v-.293l-3-3V5.5c0 .275.225.5.5.5H16z" fill="#fff"/><path opacity=".67" fill-rule="evenodd" clip-rule="evenodd" d="M16.707 5 13 1.293A1 1 0 0 0 12.293 1H4a1 1 0 0 0-1 1v16a1 1 0 0 0 1 1h12a1 1 0 0 0 1-1V5.707A1 1 0 0 0 16.707 5zM16 5.707V6h-2.5a.501.501 0 0 1-.5-.5V2.707l3 3zM4 2.2v15.6c0 .11.09.2.2.2h11.6a.2.2 0 0 0 .2-.2V7h-2.5A1.5 1.5 0 0 1 12 5.5V2H4.2a.2.2 0 0 0-.2.2z" fill="#605E5C"/><path d="M14.5 16h-9a.5.5 0 0 1 0-1h9a.5.5 0 0 1 0 1z" fill="#C8C6C4"/><path d="M13.053 12.776a.5.5 0 1 0 .894.448l-.894-.448zM14.5 11l.447.224a.5.5 0 0 0 0-.448L14.5 11zm-.553-2.224a.5.5 0 1 0-.894.448l.894-.448zm-7 .448a.5.5 0 1 0-.894-.448l.894.448zM5.5 11l-.447-.224a.5.5 0 0 0 0 .448L5.5 11zm.553 2.224a.5.5 0 1 0 .894-.448l-.894.448zm7.894 0 1-2-.894-.448-1 2 .894.448zm1-2.448-1-2-.894.448 1 2 .894-.448zm-8.894-2-1 2 .894.448 1-2-.894-.448zm-1 2.448 1 2 .894-.448-1-2-.894.448z" fill="#69AFE5"/><path d="m11 8-2 6" stroke="#69AFE5" stroke-linecap="round"/></svg>